<svg id="Layer_1" data-name="Layer 1" xmlns="http://www.w3.org/2000/svg" viewBox="0 0 102.43 49.26"><defs><style>.cls-1{fill:#dc9fc7;}</style></defs><path class="cls-1" d="M5.1,48.08a5.11,5.11,0,0,1-2.78-.57A2.53,2.53,0,0,1,1.24,46,8.65,8.65,0,0,1,1,44V5.2a8.68,8.68,0,0,1,.23-2A2.39,2.39,0,0,1,2.35,1.71a5.56,5.56,0,0,1,2.82-.54,5,5,0,0,1,2.72.57A2.51,2.51,0,0,1,9,3.22a8,8,0,0,1,.24,2V19.16l17-16.65a8.12,8.12,0,0,1,2-1.51A2.34,2.34,0,0,1,30,.87a5.6,5.6,0,0,1,2,1.44c1.16,1.12,1.74,2.09,1.74,2.92A4.26,4.26,0,0,1,32.28,8L14.56,24.59,32.48,41.23c1.12,1.08,1.66,2,1.61,2.89A4.67,4.67,0,0,1,32.28,47a6.94,6.94,0,0,1-2.22,1.38,2.14,2.14,0,0,1-1.74-.13,8.4,8.4,0,0,1-1.88-1.58L9.2,30V44.05a8.16,8.16,0,0,1-.24,2,2.4,2.4,0,0,1-1.07,1.47A5.38,5.38,0,0,1,5.1,48.08Z"/><path class="cls-1" d="M40,5a2.41,2.41,0,0,1-1.27-.26,1.12,1.12,0,0,1-.5-.71,4.1,4.1,0,0,1-.1-1,4,4,0,0,1,.11-1,1.14,1.14,0,0,1,.52-.67,2.53,2.53,0,0,1,1.27-.25,2.22,2.22,0,0,1,1.26.27,1.22,1.22,0,0,1,.5.7,3.6,3.6,0,0,1,.12,1,3.55,3.55,0,0,1-.12,1,1.19,1.19,0,0,1-.5.67A2.41,2.41,0,0,1,40,5Zm0,17.22a2.09,2.09,0,0,1-1.18-.25,1,1,0,0,1-.46-.64,4,4,0,0,1-.09-.89V9.53a4,4,0,0,1,.09-.89A1,1,0,0,1,38.85,8a2.3,2.3,0,0,1,1.2-.24A2.26,2.26,0,0,1,41.24,8a1,1,0,0,1,.45.64,4.41,4.41,0,0,1,.09.94V20.43a4,4,0,0,1-.09.89,1,1,0,0,1-.45.63A2.35,2.35,0,0,1,40,22.18Z"/><path class="cls-1" d="M50,22.36a8.22,8.22,0,0,1-1.58-.16,10,10,0,0,1-1.64-.47A6,6,0,0,1,45.37,21a2,2,0,0,1-.75-1,1.6,1.6,0,0,1-.07-.57,1.36,1.36,0,0,1,.17-.58,3.36,3.36,0,0,1,.43-.63.89.89,0,0,1,.55-.37,1.19,1.19,0,0,1,.71.19,8.76,8.76,0,0,1,.86.38c.3.16.62.32.94.47a5.18,5.18,0,0,0,1,.38,3.64,3.64,0,0,0,1,.15,3.35,3.35,0,0,0,1.72-.37,1.14,1.14,0,0,0,.63-1,1.22,1.22,0,0,0-.19-.66,1.82,1.82,0,0,0-.54-.48,4.19,4.19,0,0,0-.8-.35c-.29-.1-.61-.2-1-.29L49,16a12.82,12.82,0,0,1-1.48-.49,5.13,5.13,0,0,1-1.3-.77,3.44,3.44,0,0,1-.94-1.18,4.07,4.07,0,0,1-.35-1.77,3.85,3.85,0,0,1,.65-2.25,4.11,4.11,0,0,1,1.84-1.42,7.62,7.62,0,0,1,2.9-.49,8.23,8.23,0,0,1,1.13.08,8.93,8.93,0,0,1,1,.25,7.19,7.19,0,0,1,1,.4,7.58,7.58,0,0,1,.92.53,1.23,1.23,0,0,1,.76,1A1.78,1.78,0,0,1,54.78,11a1.9,1.9,0,0,1-.64.61.72.72,0,0,1-.67,0l-1-.5c-.36-.17-.73-.33-1.11-.47a3.61,3.61,0,0,0-1.18-.2,3.14,3.14,0,0,0-1.06.17,1.51,1.51,0,0,0-.7.5,1.21,1.21,0,0,0-.24.74,1,1,0,0,0,.24.67,1.92,1.92,0,0,0,.61.44,5.36,5.36,0,0,0,.91.31c.35.08.72.17,1.11.24.55.12,1.11.27,1.67.44a6.12,6.12,0,0,1,1.57.74,3.46,3.46,0,0,1,1.16,1.24,4.1,4.1,0,0,1,.44,2,3.89,3.89,0,0,1-1.57,3.31A7.14,7.14,0,0,1,50,22.36Z"/><path class="cls-1" d="M65.36,22.39A8.26,8.26,0,0,1,62,21.76a6.61,6.61,0,0,1-2.37-1.7,7.3,7.3,0,0,1-1.42-2.4,7.89,7.89,0,0,1-.49-2.77,7.18,7.18,0,0,1,1-3.75,6.93,6.93,0,0,1,2.68-2.58,8.13,8.13,0,0,1,3.94-.93,7.26,7.26,0,0,1,2.78.49,6.25,6.25,0,0,1,2,1.31,5.88,5.88,0,0,1,1.23,1.77,4.67,4.67,0,0,1,.42,1.87A3,3,0,0,1,71,15.33a2.61,2.61,0,0,1-1.86.7H61.43a2.78,2.78,0,0,0,.63,1.73,3.88,3.88,0,0,0,1.53,1.13,4.76,4.76,0,0,0,1.88.39,9.68,9.68,0,0,0,1.29-.08,7.49,7.49,0,0,0,1-.22,6.6,6.6,0,0,0,.73-.28l.57-.27a1.92,1.92,0,0,1,.49-.14,1.21,1.21,0,0,1,.67.14,1.32,1.32,0,0,1,.53.62,2.52,2.52,0,0,1,.25.54,1.69,1.69,0,0,1,.07.48,1.43,1.43,0,0,1-.7,1.12,5.73,5.73,0,0,1-2,.86A11.58,11.58,0,0,1,65.36,22.39ZM61.43,14h6a1.33,1.33,0,0,0,.74-.16c.17-.11.25-.34.25-.69A1.86,1.86,0,0,0,68,11.9a2.94,2.94,0,0,0-1.11-.85,3.92,3.92,0,0,0-1.61-.32,4.34,4.34,0,0,0-2,.44A3.56,3.56,0,0,0,62,12.34,2.71,2.71,0,0,0,61.43,14Z"/><path class="cls-1" d="M43.18,48.29a10.88,10.88,0,0,1-1.91-.14,4.44,4.44,0,0,1-1.44-.5,2.9,2.9,0,0,1-1-.95,4.13,4.13,0,0,1-.58-1.48,11.61,11.61,0,0,1-.17-2.11V29a4.15,4.15,0,0,1,.09-.92,1,1,0,0,1,.46-.65,2.35,2.35,0,0,1,1.21-.25,2.21,2.21,0,0,1,1.18.24,1,1,0,0,1,.47.64,3.73,3.73,0,0,1,.1.91V43a4.8,4.8,0,0,0,.08.93,1.11,1.11,0,0,0,.26.58,1,1,0,0,0,.5.31,2.63,2.63,0,0,0,.74.09,2.4,2.4,0,0,1,.69.09.8.8,0,0,1,.5.43,2.54,2.54,0,0,1,.19,1.15,2.82,2.82,0,0,1-.19,1.2.86.86,0,0,1-.51.47A3,3,0,0,1,43.18,48.29Z"/><path class="cls-1" d="M53.38,48.5a7.13,7.13,0,0,1-2.73-.56,8.05,8.05,0,0,1-2.41-1.54,7,7,0,0,1-1.69-2.34,7.14,7.14,0,0,1-.61-3,7.43,7.43,0,0,1,4.52-6.87,7.19,7.19,0,0,1,2.86-.57,7.29,7.29,0,0,1,3.75,1,7.42,7.42,0,0,1,2.66,2.65,7.17,7.17,0,0,1,1,3.78,7.42,7.42,0,0,1-.62,3,7.2,7.2,0,0,1-1.66,2.35A7.57,7.57,0,0,1,56.07,48,7.2,7.2,0,0,1,53.38,48.5ZM53.32,45a3.9,3.9,0,0,0,1.86-.48,3.93,3.93,0,0,0,2-3.53,4,4,0,0,0-.5-2,3.43,3.43,0,0,0-1.39-1.36,4.16,4.16,0,0,0-2-.49A3.84,3.84,0,0,0,50,39a3.79,3.79,0,0,0-.52,2A3.92,3.92,0,0,0,50,43.15a3.76,3.76,0,0,0,1.45,1.38A3.88,3.88,0,0,0,53.32,45Z"/><path class="cls-1" d="M68,48.47a8.38,8.38,0,0,1-1.58-.16,10.25,10.25,0,0,1-1.64-.47,6,6,0,0,1-1.36-.73,2,2,0,0,1-.75-1,1.68,1.68,0,0,1-.07-.58A1.38,1.38,0,0,1,62.8,45a2.88,2.88,0,0,1,.42-.63.91.91,0,0,1,.56-.37,1.16,1.16,0,0,1,.7.19,8.76,8.76,0,0,1,.86.38c.31.16.62.32.94.47a5,5,0,0,0,1,.38,3.58,3.58,0,0,0,1,.15A3.34,3.34,0,0,0,70,45.2a1.2,1.2,0,0,0,.44-1.7A1.82,1.82,0,0,0,69.9,43a4.39,4.39,0,0,0-.79-.35c-.3-.1-.62-.2-1-.29l-1-.3a12.22,12.22,0,0,1-1.48-.49,5.19,5.19,0,0,1-1.31-.77,3.3,3.3,0,0,1-.93-1.18A3.93,3.93,0,0,1,63,37.87a3.8,3.8,0,0,1,.65-2.24A4.12,4.12,0,0,1,65.5,34.2a7.62,7.62,0,0,1,2.9-.49,8.12,8.12,0,0,1,1.13.08,9.6,9.6,0,0,1,1.06.25,7.07,7.07,0,0,1,1,.4,8.56,8.56,0,0,1,.93.53,1.25,1.25,0,0,1,.76,1,1.87,1.87,0,0,1-.41,1.16,2,2,0,0,1-.65.6.72.72,0,0,1-.67,0l-1-.5c-.36-.17-.73-.33-1.11-.47a3.72,3.72,0,0,0-1.19-.2,3,3,0,0,0-1.06.18,1.48,1.48,0,0,0-.7.49,1.21,1.21,0,0,0-.23.74,1,1,0,0,0,.23.67,1.82,1.82,0,0,0,.62.44,5,5,0,0,0,.9.31c.36.08.73.17,1.12.24.54.12,1.1.27,1.67.44a6.05,6.05,0,0,1,1.56.74A3.46,3.46,0,0,1,73.5,42a4.1,4.1,0,0,1,.44,2,3.89,3.89,0,0,1-1.57,3.31A7.12,7.12,0,0,1,68,48.47Z"/><path class="cls-1" d="M83.43,48.5a8.26,8.26,0,0,1-3.34-.63,6.61,6.61,0,0,1-2.37-1.7,7.3,7.3,0,0,1-1.42-2.4A8.12,8.12,0,0,1,75.81,41a7.27,7.27,0,0,1,1-3.75,7,7,0,0,1,2.68-2.58,8.13,8.13,0,0,1,3.94-.93,7.23,7.23,0,0,1,2.78.49,6.25,6.25,0,0,1,2,1.31,5.65,5.65,0,0,1,1.23,1.77,4.69,4.69,0,0,1,.43,1.87,3,3,0,0,1-.75,2.26,2.61,2.61,0,0,1-1.86.7H79.51a2.66,2.66,0,0,0,.63,1.73A3.84,3.84,0,0,0,81.66,45a4.77,4.77,0,0,0,1.89.39,9.68,9.68,0,0,0,1.29-.08,7.7,7.7,0,0,0,1-.22,6.81,6.81,0,0,0,.74-.28l.57-.27a1.74,1.74,0,0,1,.48-.14,1.21,1.21,0,0,1,.67.14,1.32,1.32,0,0,1,.53.62,2.52,2.52,0,0,1,.25.54,1.69,1.69,0,0,1,.07.48,1.43,1.43,0,0,1-.7,1.12,5.73,5.73,0,0,1-2,.86A11.58,11.58,0,0,1,83.43,48.5Zm-3.92-8.44h6a1.39,1.39,0,0,0,.75-.16.8.8,0,0,0,.25-.69A1.92,1.92,0,0,0,86.1,38,3.05,3.05,0,0,0,85,37.16a3.89,3.89,0,0,0-1.61-.32,4.38,4.38,0,0,0-2,.44A3.56,3.56,0,0,0,80,38.45,2.77,2.77,0,0,0,79.51,40.06Z"/><path class="cls-1" d="M92.75,34.15l3,0,4-.11a3.54,3.54,0,0,1,.9.1,1.09,1.09,0,0,1,.63.47,2.35,2.35,0,0,1,.23,1.19,2.25,2.25,0,0,1-.23,1.15,1.1,1.1,0,0,1-.62.49,3.25,3.25,0,0,1-.88.11l-3.92-.08-3.25,0a1.22,1.22,0,0,1-1-.41,2.18,2.18,0,0,1-.28-1.28,1.92,1.92,0,0,1,.34-1.28A1.33,1.33,0,0,1,92.75,34.15Zm6.59,14.14A8.83,8.83,0,0,1,96.88,48a4,4,0,0,1-1.69-.91,3.45,3.45,0,0,1-1-1.59A8.06,8.06,0,0,1,94,43.17V30.75a4.19,4.19,0,0,1,.08-.9.93.93,0,0,1,.46-.61,3.23,3.23,0,0,1,2.37,0,1.09,1.09,0,0,1,.47.63,3.59,3.59,0,0,1,.1.9V43.05a4.47,4.47,0,0,0,.1,1,1.14,1.14,0,0,0,.33.57,1.2,1.2,0,0,0,.58.26,4.55,4.55,0,0,0,.9.08,4.43,4.43,0,0,1,1,.08.91.91,0,0,1,.6.43,2.28,2.28,0,0,1,.2,1.1,2.11,2.11,0,0,1-.25,1.18,1,1,0,0,1-.64.46A4.57,4.57,0,0,1,99.34,48.29Z"/></svg>